<svg version="1.2" xmlns="http://www.w3.org/2000/svg" viewBox="0 0 800 578" width="800" height="578"><style>.a{fill:#da0001}.b{fill:#eee}.c{fill:#239f40}.d{fill:#e96667}.e{fill:#be1931}.f{fill:#7bc58c}</style><path class="a" d="m0 489c0 11.7 2.3 23.2 6.8 34 4.4 10.8 11 20.6 19.2 28.9 8.3 8.2 18.1 14.8 28.9 19.2 10.8 4.5 22.3 6.8 34 6.8h622.2c11.7 0 23.2-2.3 34-6.8 10.8-4.4 20.6-11 28.9-19.2 8.2-8.3 14.8-18.1 19.2-28.9 4.5-10.8 6.8-22.3 6.8-34v-88.9h-800z"/><path class="b" d="m0 177.9h800v222.2h-800z"/><path class="c" d="m800 177.9v-88.9c0-11.7-2.3-23.2-6.8-34-4.4-10.8-11-20.6-19.2-28.9-8.3-8.2-18.1-14.8-28.9-19.2-10.8-4.5-22.3-6.8-34-6.8h-622.2c-11.7 0-23.2 2.3-34 6.8-10.8 4.4-20.6 11-28.9 19.2-8.2 8.3-14.8 18.1-19.2 28.9-4.5 10.8-6.8 22.3-6.8 34v88.9z"/><path class="d" d="m0 400.1h800v22.2h-800z"/><path class="e" d="m432.6 221.6c21.2 10.9 67.5 65.7 17.7 127.4 30.9-6.8 70.3-98-17.7-127.4zm-65.3 0c-88 29.4-48.7 120.6-17.7 127.4-49.8-61.7-3.6-116.5 17.7-127.4zm32.3-3.1c0.9 4.3 24.4 9.7 21.6-12.8-3.7 9.1-14.5 8.8-21.5 4.6-9.6 5.4-18.5 4.1-21.9-5-3.3 16.7 13 21.7 21.8 13.2z"/><path class="e" d="m456.4 286.9c-0.3-27.8-15-52.3-29.5-62.2 9.5 11.7 38.9 76.3-17.5 118.9l1.1-113.3-10.6-9.3-10.5 8.9 1.7 114.3-0.4-0.3c-56.9-42.5-27.4-107.5-17.8-119.2-14.5 9.9-29.2 34.4-29.5 62.2-0.3 23.8 10.6 49.8 40.7 71.2q-4.5 1.2-9.2 2-4.6 0.9-9.3 1.5-4.6 0.5-9.3 0.8-4.7 0.2-9.5 0.2c10.4 5.6 29.8 4.2 44.6 2.9l0.1 1.5 8.8 9.7 8.9-10.1v-1.2c14.9 1.4 34.8 2.9 45.3-2.8q-4.9 0.1-9.7-0.2-4.9-0.3-9.7-0.9-4.8-0.5-9.6-1.5-4.8-0.9-9.5-2.2c29.9-21.3 40.7-47.2 40.4-70.9z"/><path class="f" d="m0 155.7h800v22.2h-800z"/></svg>