<svg version="1.2" xmlns="http://www.w3.org/2000/svg" viewBox="0 0 800 572" width="800" height="572"><defs><clipPath clipPathUnits="userSpaceOnUse" id="cp1"><path d="m57.14 0.29h685.72c31.56 0 57.14 25.58 57.14 57.14v457.14c0 31.56-25.58 57.14-57.14 57.14h-685.72c-31.56 0-57.14-25.58-57.14-57.14v-457.14c0-31.56 25.58-57.14 57.14-57.14z"/></clipPath><clipPath clipPathUnits="userSpaceOnUse" id="cp2"><path d="m57.14 0.29h685.72c31.56 0 57.14 25.58 57.14 57.14v457.14c0 31.56-25.58 57.14-57.14 57.14h-685.72c-31.56 0-57.14-25.58-57.14-57.14v-457.14c0-31.56 25.58-57.14 57.14-57.14z"/></clipPath><linearGradient id="P" gradientUnits="userSpaceOnUse"/><linearGradient id="g1" x2="1" href="#P" gradientTransform="matrix(0,190.476,-266.665,0,38.095,38.381)"><stop stop-color="#fff"/><stop offset="1" stop-color="#f0f0f0"/></linearGradient></defs><style>.a{fill:#fff}.b{fill:#d02f44}.c{fill:#46467f}.d{fill:url(#g1)}</style><g clip-path="url(#cp1)"><path fill-rule="evenodd" class="a" d="m57.1 0.3h685.8c31.5 0 57.1 25.6 57.1 57.1v457.2c0 31.5-25.6 57.1-57.1 57.1h-685.8c-31.5 0-57.1-25.6-57.1-57.1v-457.2c0-31.5 25.6-57.1 57.1-57.1z"/><g clip-path="url(#cp2)"><path fill-rule="evenodd" class="b" d="m800 38.4h-800v-38.1h800zm0 76.2h-800v-38.1h800zm-800 38.1h800v38.1h-800zm800 114.3h-800v-38.1h800zm-800 38.1h800v38.1h-800zm800 114.2h-800v-38.1h800zm-800 38.1h800v38.1h-800zm800 114.3h-800v-38.1h800z"/><path fill-rule="evenodd" class="c" d="m0 0.3h342.9v266.7h-342.9z"/><path fill-rule="evenodd" class="d" d="m76.2 57.4c0 10.5-8.5 19.1-19.1 19.1-10.5 0-19-8.6-19-19.1 0-10.5 8.5-19 19-19 10.6 0 19.1 8.5 19.1 19zm76.2 0c0 10.5-8.5 19.1-19.1 19.1-10.5 0-19-8.6-19-19.1 0-10.5 8.5-19 19-19 10.6 0 19.1 8.5 19.1 19zm38.1 0c0-10.5 8.5-19 19-19 10.5 0 19.1 8.5 19.1 19 0 10.5-8.6 19.1-19.1 19.1-10.5 0-19-8.6-19-19.1zm114.3 0c0 10.5-8.6 19.1-19.1 19.1-10.5 0-19-8.6-19-19.1 0-10.5 8.5-19 19-19 10.5 0 19.1 8.5 19.1 19zm-228.6 38.1c0-10.5 8.5-19 19-19 10.6 0 19.1 8.5 19.1 19 0 10.5-8.5 19.1-19.1 19.1-10.5 0-19-8.6-19-19.1zm114.3 0c0 10.5-8.6 19.1-19.1 19.1-10.5 0-19-8.6-19-19.1 0-10.5 8.5-19 19-19 10.5 0 19.1 8.5 19.1 19zm38.1 0c0-10.5 8.5-19 19-19 10.5 0 19.1 8.5 19.1 19 0 10.5-8.6 19.1-19.1 19.1-10.5 0-19-8.6-19-19.1zm76.2 38.1c0 10.5-8.6 19.1-19.1 19.1-10.5 0-19-8.6-19-19.1 0-10.5 8.5-19 19-19 10.5 0 19.1 8.5 19.1 19zm-114.3 0c0-10.5 8.5-19 19-19 10.5 0 19.1 8.5 19.1 19 0 10.5-8.6 19.1-19.1 19.1-10.5 0-19-8.6-19-19.1zm-38.1 0c0 10.5-8.5 19.1-19.1 19.1-10.5 0-19-8.6-19-19.1 0-10.5 8.5-19 19-19 10.6 0 19.1 8.5 19.1 19zm-114.3 0c0-10.5 8.5-19 19-19 10.6 0 19.1 8.5 19.1 19 0 10.5-8.5 19.1-19.1 19.1-10.5 0-19-8.6-19-19.1zm76.2 38.1c0 10.5-8.5 19.1-19.1 19.1-10.5 0-19-8.6-19-19.1 0-10.5 8.5-19 19-19 10.6 0 19.1 8.5 19.1 19zm38.1 0c0-10.5 8.5-19 19-19 10.5 0 19.1 8.5 19.1 19 0 10.5-8.6 19.1-19.1 19.1-10.5 0-19-8.6-19-19.1zm114.3 0c0 10.5-8.6 19.1-19.1 19.1-10.5 0-19-8.6-19-19.1 0-10.5 8.5-19 19-19 10.5 0 19.1 8.5 19.1 19zm0 38.1c0-10.5 8.5-19 19-19 10.5 0 19.1 8.5 19.1 19 0 10.5-8.6 19.1-19.1 19.1-10.5 0-19-8.6-19-19.1zm-38.1 0c0 10.5-8.6 19.1-19.1 19.1-10.5 0-19-8.6-19-19.1 0-10.5 8.5-19 19-19 10.5 0 19.1 8.5 19.1 19zm-114.3 0c0-10.5 8.5-19 19-19 10.6 0 19.1 8.5 19.1 19 0 10.5-8.5 19.1-19.1 19.1-10.5 0-19-8.6-19-19.1zm-38.1 0c0 10.5-8.5 19.1-19.1 19.1-10.5 0-19-8.6-19-19.1 0-10.5 8.5-19 19-19 10.6 0 19.1 8.5 19.1 19z"/></g></g></svg>